<svg xmlns="http://www.w3.org/2000/svg" width="22.793" height="22.793" viewBox="0 0 22.793 22.793">
  <g id="Group_148" data-name="Group 148" transform="translate(1 1)">
    <path id="Path_869" data-name="Path 869" d="M19.559,22.119A1.559,1.559,0,1,0,18,20.559,1.559,1.559,0,0,0,19.559,22.119Z" transform="translate(-1.366 -1.326)"/>
    <path id="Path_869_-_Outline" data-name="Path 869 - Outline" d="M19.559,23.119a2.559,2.559,0,1,1,2.559-2.559A2.562,2.562,0,0,1,19.559,23.119Zm0-3.119a.559.559,0,1,0,.559.559A.56.56,0,0,0,19.559,20Z" transform="translate(-1.366 -1.326)"/>
    <path id="Path_870" data-name="Path 870" d="M9.559,22.119A1.559,1.559,0,1,0,8,20.559,1.559,1.559,0,0,0,9.559,22.119Z" transform="translate(-1.762 -1.326)"/>
    <path id="Path_870_-_Outline" data-name="Path 870 - Outline" d="M9.559,23.119a2.559,2.559,0,1,1,2.559-2.559A2.562,2.562,0,0,1,9.559,23.119Zm0-3.119a.559.559,0,1,0,.559.559A.56.56,0,0,0,9.559,20Z" transform="translate(-1.762 -1.326)"/>
    <path id="Path_871" data-name="Path 871" d="M20.714,16.515H7.2a1,1,0,0,1-.984-.821L4.143,4.3A2.05,2.05,0,0,0,2,3,1,1,0,0,1,2,1,4.133,4.133,0,0,1,5.78,3.079H22.793a1,1,0,0,1,.984,1.179L21.7,15.694A1,1,0,0,1,20.714,16.515Zm-12.681-2H19.879l1.716-9.436H6.317Z" transform="translate(-2 -2)"/>
    <path id="Path_872" data-name="Path 872" d="M20.174,20.159H5.339a4.419,4.419,0,0,1-2.718-.767,2.946,2.946,0,0,1,0-4.625A4.419,4.419,0,0,1,5.339,14H20.694a1,1,0,1,1,0,2H5.339c-1.22,0-1.839.363-1.839,1.079s.619,1.079,1.839,1.079H20.174a1,1,0,1,1,0,2Z" transform="translate(-1.98 -1.485)"/>
  </g>
</svg>
