<svg xmlns="http://www.w3.org/2000/svg" width="24.742" height="22.467" viewBox="0 0 24.742 22.467">
  <path id="Path_868" data-name="Path 868" d="M18.266,2A7.429,7.429,0,0,1,23.58,4.275a7.8,7.8,0,0,1,0,10.782c-.917.95-1.842,1.933-2.738,2.884-1.816,1.928-3.694,3.922-5.635,5.792l-.005.005a2.664,2.664,0,0,1-3.746-.082l-8.3-8.6a7.806,7.806,0,0,1,0-10.782,7.342,7.342,0,0,1,10.21-.4A7.419,7.419,0,0,1,18.266,2ZM13.824,22.289c1.9-1.835,3.765-3.809,5.563-5.719.9-.955,1.829-1.942,2.754-2.9a5.8,5.8,0,0,0,0-8.005,5.345,5.345,0,0,0-7.749,0l-.3.313a1,1,0,0,1-1.439,0l-.3-.313a5.346,5.346,0,0,0-7.749,0,5.815,5.815,0,0,0,0,8.005l8.3,8.6a.664.664,0,0,0,.928.022Z" transform="translate(-1 -2)"/>
</svg>
