<?xml version="1.0" encoding="UTF-8"?>
<svg width="23px" height="15px" viewBox="0 0 23 15" version="1.1" xmlns="http://www.w3.org/2000/svg" xmlns:xlink="http://www.w3.org/1999/xlink">
    <!-- Generator: Sketch 51.2 (57519) - http://www.bohemiancoding.com/sketch -->
    <title>Newsletter</title>
    <desc>Created with Sketch.</desc>
    <defs></defs>
    <g id="Page-1" stroke="none" stroke-width="1" fill="none" fill-rule="evenodd">
        <g id="Desktop" transform="translate(-1395.000000, -1572.000000)" fill="#FFFFFF" fill-rule="nonzero">
            <path d="M1396,1572 L1417,1572 C1417.55228,1572 1418,1572.44772 1418,1573 L1418,1586 C1418,1586.55228 1417.55228,1587 1417,1587 L1396,1587 C1395.44772,1587 1395,1586.55228 1395,1586 L1395,1573 C1395,1572.44772 1395.44772,1572 1396,1572 Z M1399.79602,1585 L1413.2641,1585 L1408.41718,1581.26086 L1406.51154,1582.83325 L1404.50305,1581.26086 L1399.79602,1585 Z M1403.01276,1579.99548 L1397,1575 L1397,1584.75879 L1403.01276,1579.99548 Z M1410,1579.99548 L1416.01276,1584.75879 L1416.01276,1575 L1410,1579.99548 Z M1406.49261,1580.18634 L1413.9342,1574 L1399,1574 L1406.49261,1580.18634 Z" id="Newsletter"></path>
        </g>
    </g>
</svg>